<?xml version="1.0" encoding="UTF-8"?><svg id="a" xmlns="http://www.w3.org/2000/svg" viewBox="0 0 691.21 123.88"><defs><style>.b{fill:#fff;}.c{fill:#feeb15;stroke:#3c3c3b;stroke-miterlimit:10;}</style></defs><path class="c" d="M336.7,14.53c-6.5,0-11.79,6.03-11.79,13.45V93.83c0,7.41,5.29,13.45,11.79,13.45h7.91V14.53h-7.91Z"/><path class="c" d="M487.87,.5h-25.72c-6.5,0-11.79,6.03-11.79,13.45V52.83h-50.89V13.95c0-7.41-5.29-13.45-11.79-13.45h-25.72c-6.5,0-11.79,6.03-11.79,13.45V107.86c0,7.41,5.29,13.45,11.79,13.45h25.72c6.5,0,11.79-6.03,11.79-13.45v-38.89h50.89v38.89c0,7.41,5.29,13.45,11.79,13.45h25.72c6.5,0,11.79-6.03,11.79-13.45V13.95c0-7.41-5.29-13.45-11.79-13.45Z"/><path class="c" d="M513.12,14.53h-7.91V107.28h7.91c6.5,0,11.79-6.03,11.79-13.45V27.97c0-7.41-5.29-13.45-11.79-13.45Z"/><g><path class="b" d="M72.88,54.44h-30.83v-20.61c0-5.99-.33-9.73-.99-11.22-.66-1.49-2.11-2.23-4.36-2.23-2.54,0-4.15,.9-4.83,2.71-.68,1.81-1.03,5.71-1.03,11.72v55.08c0,5.76,.34,9.52,1.03,11.28,.68,1.76,2.22,2.64,4.61,2.64s3.8-.88,4.5-2.64c.71-1.76,1.06-5.9,1.06-12.41v-14.91h30.83v4.62c0,12.27-.87,20.98-2.6,26.11-1.73,5.13-5.57,9.63-11.5,13.5-5.93,3.86-13.25,5.79-21.94,5.79s-16.48-1.64-22.34-4.91-9.74-7.8-11.65-13.59-2.86-14.49-2.86-26.11V44.63c0-8.54,.29-14.95,.88-19.23,.59-4.27,2.33-8.39,5.24-12.34,2.9-3.96,6.93-7.07,12.08-9.34C23.35,1.45,29.27,.32,35.96,.32c9.08,0,16.58,1.76,22.49,5.27,5.91,3.51,9.79,7.89,11.65,13.13,1.85,5.24,2.78,13.4,2.78,24.46v11.26Z"/><path class="b" d="M154.39,72.24c0,11.92-.28,20.35-.84,25.31-.56,4.96-2.32,9.48-5.27,13.59-2.96,4.1-6.95,7.25-11.98,9.45-5.03,2.2-10.89,3.3-17.58,3.3s-12.05-1.04-17.1-3.11c-5.05-2.08-9.12-5.19-12.19-9.34-3.08-4.15-4.91-8.67-5.49-13.55-.59-4.88-.88-13.43-.88-25.63v-20.29c0-11.91,.28-20.35,.84-25.3,.56-4.96,2.32-9.49,5.27-13.59,2.95-4.1,6.95-7.25,11.98-9.45,5.03-2.2,10.89-3.3,17.58-3.3,6.35,0,12.05,1.04,17.1,3.11,5.05,2.08,9.12,5.19,12.19,9.34,3.08,4.15,4.91,8.67,5.49,13.55,.59,4.88,.88,13.43,.88,25.63v20.29Zm-30.83-38.96c0-5.52-.31-9.04-.92-10.58-.61-1.54-1.87-2.31-3.77-2.31-1.61,0-2.85,.62-3.7,1.87-.85,1.25-1.28,4.92-1.28,11.02v55.37c0,6.88,.28,11.13,.84,12.74,.56,1.61,1.87,2.42,3.92,2.42s3.44-.93,4.03-2.78c.59-1.85,.88-6.27,.88-13.26V33.28Z"/><path class="b" d="M219.2,2.81l17.63,118.58h-31.51l-1.66-21.31h-11.03l-1.85,21.31h-31.88L174.63,2.81h44.57Zm-16.34,76.25c-1.56-13.43-3.13-30.03-4.7-49.8-3.14,22.71-5.11,39.31-5.92,49.8h10.61Z"/><path class="b" d="M314.06,54.44h-30.83v-20.61c0-5.99-.33-9.73-.99-11.22-.66-1.49-2.11-2.23-4.36-2.23-2.54,0-4.15,.9-4.83,2.71-.68,1.81-1.03,5.71-1.03,11.72v55.08c0,5.76,.34,9.52,1.03,11.28,.68,1.76,2.22,2.64,4.61,2.64s3.8-.88,4.5-2.64c.71-1.76,1.06-5.9,1.06-12.41v-14.91h30.83v4.62c0,12.27-.87,20.98-2.6,26.11-1.73,5.13-5.57,9.63-11.5,13.5-5.93,3.86-13.25,5.79-21.94,5.79s-16.48-1.64-22.34-4.91-9.74-7.8-11.65-13.59-2.86-14.49-2.86-26.11V44.63c0-8.54,.29-14.95,.88-19.23,.59-4.27,2.33-8.39,5.24-12.34s6.93-7.07,12.09-9.34c5.15-2.27,11.07-3.41,17.76-3.41,9.08,0,16.58,1.76,22.49,5.27,5.91,3.51,9.79,7.89,11.65,13.13,1.86,5.24,2.78,13.4,2.78,24.46v11.26Z"/><path class="b" d="M607.49,2.81V82.06c0,8.99-.29,15.3-.88,18.93-.59,3.64-2.32,7.37-5.2,11.21-2.88,3.83-6.68,6.74-11.39,8.72-4.71,1.98-10.27,2.97-16.66,2.97-7.08,0-13.33-1.17-18.75-3.52s-9.47-5.39-12.16-9.16c-2.69-3.76-4.27-7.73-4.76-11.9-.49-4.17-.73-12.95-.73-26.33V2.81h30.83V91.72c0,5.18,.28,8.49,.84,9.92,.56,1.44,1.7,2.16,3.41,2.16,1.95,0,3.21-.79,3.77-2.38,.56-1.59,.84-5.33,.84-11.24V2.81h30.83Z"/><path class="b" d="M619.43,2.81h30.76c9.72,0,17.08,.76,22.08,2.27s9.05,4.57,12.12,9.19,4.61,12.04,4.61,22.29c0,6.93-1.09,11.76-3.26,14.49-2.17,2.73-6.46,4.83-12.85,6.29,7.13,1.61,11.96,4.29,14.5,8.02,2.54,3.74,3.81,9.47,3.81,17.19v10.99c0,8.01-.92,13.95-2.75,17.81-1.83,3.86-4.75,6.5-8.75,7.92-4,1.42-12.21,2.12-24.61,2.12h-35.67V2.81Zm30.83,20.29v26.37c1.32-.05,2.34-.07,3.08-.07,3.03,0,4.96-.74,5.79-2.23,.83-1.49,1.25-5.75,1.25-12.78,0-3.71-.34-6.31-1.03-7.8-.68-1.49-1.58-2.43-2.67-2.82-1.1-.39-3.24-.61-6.41-.66Zm0,44.82v33.18c4.35-.15,7.12-.83,8.31-2.05,1.2-1.22,1.79-4.22,1.79-9.01v-11.06c0-5.08-.54-8.15-1.61-9.23-1.07-1.07-3.91-1.68-8.5-1.83Z"/></g></svg>